<svg viewBox="0 0 45.68 24.26"><g id="tm"><g><path class="cls-1" d="M1154.93,287h-7.38v-2.66h18V287h-7.42v21.6h-3.17V287Z" transform="translate(-1147.55 -284.34)"/><path d="M1189.56,297.95c-0.18-3.38-.4-7.45-0.36-10.47h-0.11c-0.83,2.84-1.84,5.87-3.06,9.21l-4.28,11.77h-2.38l-3.92-11.55c-1.15-3.42-2.12-6.55-2.81-9.43h-0.07c-0.07,3-.25,7.09-0.47,10.73l-0.65,10.4h-3l1.69-24.26h4l4.14,11.73c1,3,1.84,5.65,2.45,8.17h0.11c0.61-2.45,1.48-5.11,2.56-8.17l4.32-11.73h4l1.51,24.26h-3.06Z" transform="translate(-1147.55 -284.34)"/></g></g></svg>
