<svg xmlns="http://www.w3.org/2000/svg"><symbol id="double-arrow" viewBox="0 0 26 26"><path d="M.046 2.582L2.13.498l10.837 10.836L23.803.498l2.084 2.084-12.92 12.92z"/><path d="M.046 13.582l2.084-2.084 10.837 10.836 10.836-10.836 2.084 2.084-12.92 12.92z"/></symbol><symbol id="tm" viewBox="0 0 45.68 24.26"><path class="cls-1" d="M7.38 2.66H0V0h18v2.66h-7.42v21.6H7.41V2.66z"/><path d="M42.01 13.61c-.18-3.38-.4-7.45-.36-10.47h-.11c-.83 2.84-1.84 5.87-3.06 9.21L34.2 24.12h-2.38L27.9 12.57c-1.15-3.42-2.12-6.55-2.81-9.43h-.07c-.07 3-.25 7.09-.47 10.73l-.65 10.4h-3L22.59.01h4l4.14 11.73c1 3 1.84 5.65 2.45 8.17h.11c.61-2.45 1.48-5.11 2.56-8.17L40.17.01h4l1.51 24.26h-3.06z"/></symbol></svg>